<svg width="1366" height="147" viewBox="0 0 1366 147" fill="none" xmlns="http://www.w3.org/2000/svg">
<path d="M0 0H1366V125.923C797.5 184.501 367.5 70.2359 0 146.03V0Z" fill="#F58585"/>
<path d="M627.43 52.7665V56.489H622.507V73H617.854V56.489H612.901V52.7665H627.43ZM636.855 73.2402C634.473 73.2402 632.632 72.5297 631.331 71.1087C630.03 69.6678 629.38 67.8266 629.38 65.5851C629.38 63.2435 630.06 61.3222 631.421 59.8212C632.782 58.3002 634.593 57.5397 636.855 57.5397C639.216 57.5397 641.048 58.2702 642.349 59.7312C643.649 61.1921 644.3 63.0534 644.3 65.3149C644.3 67.6164 643.639 69.5177 642.319 71.0187C641.018 72.4997 639.196 73.2402 636.855 73.2402ZM636.825 60.992C635.864 60.992 635.144 61.4023 634.663 62.2228C634.183 63.0434 633.943 64.1041 633.943 65.4049C633.943 66.7058 634.183 67.7765 634.663 68.6171C635.164 69.4376 635.904 69.8479 636.885 69.8479C637.846 69.8479 638.556 69.4476 639.016 68.6471C639.497 67.8266 639.737 66.7658 639.737 65.465C639.737 62.483 638.766 60.992 636.825 60.992ZM652.057 69.2175H654.158C656.019 69.2175 657.45 68.6371 658.451 67.4763C659.471 66.3155 659.982 64.6745 659.982 62.553C659.982 60.7518 659.471 59.3109 658.451 58.2302C657.43 57.1294 655.989 56.5791 654.128 56.5791H652.057V69.2175ZM647.313 52.7665H654.278C657.32 52.7665 659.812 53.7071 661.753 55.5884C663.694 57.4496 664.665 59.7712 664.665 62.553C664.665 65.7952 663.704 68.3469 661.783 70.2081C659.882 72.0694 657.36 73 654.218 73H647.313V52.7665ZM674.38 73.2402C671.998 73.2402 670.157 72.5297 668.856 71.1087C667.555 69.6678 666.905 67.8266 666.905 65.5851C666.905 63.2435 667.585 61.3222 668.946 59.8212C670.307 58.3002 672.118 57.5397 674.38 57.5397C676.741 57.5397 678.573 58.2702 679.874 59.7312C681.174 61.1921 681.825 63.0534 681.825 65.3149C681.825 67.6164 681.164 69.5177 679.844 71.0187C678.543 72.4997 676.721 73.2402 674.38 73.2402ZM674.35 60.992C673.389 60.992 672.669 61.4023 672.188 62.2228C671.708 63.0434 671.468 64.1041 671.468 65.4049C671.468 66.7058 671.708 67.7765 672.188 68.6171C672.689 69.4376 673.429 69.8479 674.41 69.8479C675.371 69.8479 676.081 69.4476 676.541 68.6471C677.022 67.8266 677.262 66.7658 677.262 65.465C677.262 62.483 676.291 60.992 674.35 60.992ZM698.257 65.1348H703.121L702.91 64.4143C702.33 62.453 701.85 60.7819 701.469 59.4009C701.109 58.02 700.889 57.1294 700.809 56.7292L700.689 56.1288C700.529 57.2295 699.788 59.9913 698.467 64.4143L698.257 65.1348ZM705.462 73L704.231 68.8572H697.147L695.916 73H691.083L697.837 52.7665H703.661L710.415 73H705.462ZM720.725 69.5177C721.686 69.5177 722.466 69.1574 723.067 68.437C723.667 67.6965 723.967 66.6958 723.967 65.435C723.967 64.054 723.657 63.0133 723.037 62.3129C722.436 61.5924 721.666 61.2322 720.725 61.2322C719.805 61.2322 719.004 61.5824 718.324 62.2829C717.643 62.9833 717.303 63.964 717.303 65.2248C717.303 66.5257 717.623 67.5664 718.264 68.3469C718.904 69.1274 719.725 69.5177 720.725 69.5177ZM717.303 57.7799V60.1214C718.364 58.4403 719.895 57.5997 721.896 57.5997C723.857 57.5997 725.428 58.3002 726.609 59.7011C727.81 61.0821 728.41 62.9633 728.41 65.3449C728.41 67.6064 727.83 69.4777 726.669 70.9586C725.528 72.4396 723.937 73.1801 721.896 73.1801C719.835 73.1801 718.304 72.3696 717.303 70.7485V78.6137H712.92V57.7799H717.303ZM739.077 69.5177C740.038 69.5177 740.818 69.1574 741.419 68.437C742.019 67.6965 742.319 66.6958 742.319 65.435C742.319 64.054 742.009 63.0133 741.389 62.3129C740.788 61.5924 740.018 61.2322 739.077 61.2322C738.157 61.2322 737.356 61.5824 736.676 62.2829C735.995 62.9833 735.655 63.964 735.655 65.2248C735.655 66.5257 735.975 67.5664 736.616 68.3469C737.256 69.1274 738.077 69.5177 739.077 69.5177ZM735.655 57.7799V60.1214C736.716 58.4403 738.247 57.5997 740.248 57.5997C742.209 57.5997 743.78 58.3002 744.961 59.7011C746.162 61.0821 746.762 62.9633 746.762 65.3449C746.762 67.6064 746.182 69.4777 745.021 70.9586C743.88 72.4396 742.289 73.1801 740.248 73.1801C738.187 73.1801 736.656 72.3696 735.655 70.7485V78.6137H731.272V57.7799H735.655Z" fill="black" fill-opacity="0.45"/>
</svg>
