<svg width="1440" height="214" viewBox="0 0 1440 214" fill="none" xmlns="http://www.w3.org/2000/svg">
<path d="M0 0H1440V164.035C886.617 110.583 571.223 111.201 0 164.035V0Z" fill="#F9F2F2"/>
<path d="M631.005 52.5473H621.16V49.986H643.811V52.5473H633.966V78H631.005V52.5473ZM654.358 78.2001C652.33 78.2001 650.503 77.7465 648.875 76.8394C647.248 75.9056 645.967 74.625 645.033 72.9975C644.099 71.37 643.633 69.5291 643.633 67.4747C643.633 65.4204 644.099 63.5795 645.033 61.952C645.967 60.3245 647.248 59.0572 648.875 58.1501C650.503 57.243 652.33 56.7894 654.358 56.7894C656.386 56.7894 658.213 57.243 659.841 58.1501C661.468 59.0572 662.735 60.3245 663.643 61.952C664.576 63.5795 665.043 65.4204 665.043 67.4747C665.043 69.5291 664.576 71.37 663.643 72.9975C662.735 74.625 661.468 75.9056 659.841 76.8394C658.213 77.7465 656.386 78.2001 654.358 78.2001ZM654.358 75.6788C655.852 75.6788 657.186 75.3453 658.36 74.6783C659.561 73.9847 660.494 73.0108 661.161 71.7569C661.828 70.5029 662.162 69.0755 662.162 67.4747C662.162 65.8739 661.828 64.4466 661.161 63.1926C660.494 61.9386 659.561 60.9782 658.36 60.3112C657.186 59.6175 655.852 59.2706 654.358 59.2706C652.864 59.2706 651.517 59.6175 650.316 60.3112C649.142 60.9782 648.208 61.9386 647.515 63.1926C646.848 64.4466 646.514 65.8739 646.514 67.4747C646.514 69.0755 646.848 70.5029 647.515 71.7569C648.208 73.0108 649.142 73.9847 650.316 74.6783C651.517 75.3453 652.864 75.6788 654.358 75.6788ZM671.445 49.986H682.85C685.812 49.986 688.426 50.5863 690.694 51.7869C692.962 52.9608 694.723 54.615 695.977 56.7494C697.231 58.8571 697.858 61.2716 697.858 63.993C697.858 66.7144 697.231 69.1422 695.977 71.2766C694.723 73.3844 692.962 75.0385 690.694 76.2391C688.426 77.413 685.812 78 682.85 78H671.445V49.986ZM682.69 75.4387C685.145 75.4387 687.293 74.9585 689.133 73.998C690.974 73.0108 692.402 71.6635 693.416 69.956C694.429 68.2218 694.936 66.2341 694.936 63.993C694.936 61.7519 694.429 59.7776 693.416 58.07C692.402 56.3358 690.974 54.9885 689.133 54.028C687.293 53.0409 685.145 52.5473 682.69 52.5473H674.406V75.4387H682.69ZM712.512 78.2001C710.484 78.2001 708.657 77.7465 707.029 76.8394C705.402 75.9056 704.121 74.625 703.187 72.9975C702.254 71.37 701.787 69.5291 701.787 67.4747C701.787 65.4204 702.254 63.5795 703.187 61.952C704.121 60.3245 705.402 59.0572 707.029 58.1501C708.657 57.243 710.484 56.7894 712.512 56.7894C714.54 56.7894 716.367 57.243 717.995 58.1501C719.622 59.0572 720.89 60.3245 721.797 61.952C722.73 63.5795 723.197 65.4204 723.197 67.4747C723.197 69.5291 722.73 71.37 721.797 72.9975C720.89 74.625 719.622 75.9056 717.995 76.8394C716.367 77.7465 714.54 78.2001 712.512 78.2001ZM712.512 75.6788C714.006 75.6788 715.34 75.3453 716.514 74.6783C717.715 73.9847 718.648 73.0108 719.315 71.7569C719.982 70.5029 720.316 69.0755 720.316 67.4747C720.316 65.8739 719.982 64.4466 719.315 63.1926C718.648 61.9386 717.715 60.9782 716.514 60.3112C715.34 59.6175 714.006 59.2706 712.512 59.2706C711.018 59.2706 709.671 59.6175 708.47 60.3112C707.296 60.9782 706.362 61.9386 705.669 63.1926C705.002 64.4466 704.668 65.8739 704.668 67.4747C704.668 69.0755 705.002 70.5029 705.669 71.7569C706.362 73.0108 707.296 73.9847 708.47 74.6783C709.671 75.3453 711.018 75.6788 712.512 75.6788ZM757.641 70.5163H742.034L738.672 78H735.59L748.397 49.986H751.318L764.125 78H761.003L757.641 70.5163ZM756.561 68.1151L749.838 53.0675L743.114 68.1151H756.561ZM779.004 56.7894C780.978 56.7894 782.766 57.243 784.367 58.1501C785.967 59.0305 787.221 60.2845 788.129 61.912C789.036 63.5394 789.489 65.3937 789.489 67.4747C789.489 69.5825 789.036 71.4501 788.129 73.0775C787.221 74.705 785.967 75.9723 784.367 76.8794C782.793 77.7599 781.005 78.2001 779.004 78.2001C777.296 78.2001 775.749 77.8533 774.362 77.1596C773.001 76.4392 771.88 75.3987 771 74.038V85.7639H768.159V56.9495H770.88V61.1116C771.734 59.7242 772.854 58.657 774.242 57.91C775.656 57.1629 777.243 56.7894 779.004 56.7894ZM778.804 75.6788C780.271 75.6788 781.605 75.3453 782.806 74.6783C784.006 73.9847 784.94 73.0108 785.607 71.7569C786.301 70.5029 786.648 69.0755 786.648 67.4747C786.648 65.8739 786.301 64.4599 785.607 63.2326C784.94 61.9787 784.006 61.0048 782.806 60.3112C781.605 59.6175 780.271 59.2706 778.804 59.2706C777.31 59.2706 775.962 59.6175 774.762 60.3112C773.588 61.0048 772.654 61.9787 771.96 63.2326C771.293 64.4599 770.96 65.8739 770.96 67.4747C770.96 69.0755 771.293 70.5029 771.96 71.7569C772.654 73.0108 773.588 73.9847 774.762 74.6783C775.962 75.3453 777.31 75.6788 778.804 75.6788ZM806.127 56.7894C808.101 56.7894 809.889 57.243 811.49 58.1501C813.09 59.0305 814.344 60.2845 815.251 61.912C816.159 63.5394 816.612 65.3937 816.612 67.4747C816.612 69.5825 816.159 71.4501 815.251 73.0775C814.344 74.705 813.09 75.9723 811.49 76.8794C809.915 77.7599 808.128 78.2001 806.127 78.2001C804.419 78.2001 802.872 77.8533 801.485 77.1596C800.124 76.4392 799.003 75.3987 798.123 74.038V85.7639H795.281V56.9495H798.003V61.1116C798.857 59.7242 799.977 58.657 801.365 57.91C802.779 57.1629 804.366 56.7894 806.127 56.7894ZM805.927 75.6788C807.394 75.6788 808.728 75.3453 809.929 74.6783C811.129 73.9847 812.063 73.0108 812.73 71.7569C813.424 70.5029 813.771 69.0755 813.771 67.4747C813.771 65.8739 813.424 64.4599 812.73 63.2326C812.063 61.9787 811.129 61.0048 809.929 60.3112C808.728 59.6175 807.394 59.2706 805.927 59.2706C804.433 59.2706 803.085 59.6175 801.885 60.3112C800.711 61.0048 799.777 61.9787 799.083 63.2326C798.416 64.4599 798.083 65.8739 798.083 67.4747C798.083 69.0755 798.416 70.5029 799.083 71.7569C799.777 73.0108 800.711 73.9847 801.885 74.6783C803.085 75.3453 804.433 75.6788 805.927 75.6788Z" fill="#283646" fill-opacity="0.69"/>
</svg>
